Coordinates
version=1
nRows=34
nColumns=38
inDegrees=no

Units are S.I. units (second, meters, Newtons, ...)
If the header above contains a line with 'inDegrees', this indicates whether rotational values are in degrees (yes) or radians (no).

endheader
time	pelvis_tilt	pelvis_list	pelvis_rotation	pelvis_tx	pelvis_ty	pelvis_tz	hip_flexion_r	hip_adduction_r	hip_rotation_r	knee_angle_r	ankle_angle_r	subtalar_angle_r	mtp_angle_r	hip_flexion_l	hip_adduction_l	hip_rotation_l	knee_angle_l	ankle_angle_l	subtalar_angle_l	mtp_angle_l	lumbar_extension	lumbar_bending	lumbar_rotation	arm_flex_r	arm_add_r	arm_rot_r	elbow_flex_r	pro_sup_r	wrist_flex_r	wrist_dev_r	arm_flex_l	arm_add_l	arm_rot_l	elbow_flex_l	pro_sup_l	wrist_flex_l	wrist_dev_l
20.65	-3.09256	1.34356	-1.50017	0.633116	-0.275948	0.947143	-0.394048	-0.0491077	-0.0896334	0.497928	-0.26728	0	0	-0.0781534	0.00122632	-0.0593896	0.297052	-0.262054	0	0	-0.343432	-0.0507997	0.172858	0.349217	-0.460645	0.247287	1.70836	1.5708	0	0	0.660026	-0.224856	0.500932	1.40486	1.5708	0	0
20.66	-3.09301	1.34211	-1.49199	0.630846	-0.272715	0.947486	-0.383971	-0.0524145	-0.096145	0.526089	-0.280292	0	0	-0.0837971	0.00153787	-0.0592813	0.296091	-0.260984	0	0	-0.343798	-0.048613	0.165002	0.344691	-0.459623	0.2442	1.70878	1.5708	0	0	0.659681	-0.224907	0.503901	1.40449	1.5708	0	0
20.67	-3.09295	1.34088	-1.48377	0.628655	-0.269666	0.947759	-0.372731	-0.0556691	-0.103372	0.555733	-0.292742	0	0	-0.0884238	0.00170852	-0.0587523	0.296061	-0.259908	0	0	-0.344213	-0.0465793	0.156653	0.340649	-0.458471	0.241063	1.70908	1.5708	0	0	0.659853	-0.225121	0.506902	1.40401	1.5708	0	0
20.68	-3.09328	1.33985	-1.4752	0.626561	-0.266797	0.948004	-0.360305	-0.0589844	-0.111997	0.58605	-0.305264	0	0	-0.0922212	0.00152327	-0.0582676	0.296737	-0.258724	0	0	-0.34487	-0.0444469	0.148382	0.337039	-0.457262	0.238091	1.70965	1.5708	0	0	0.660407	-0.225497	0.509981	1.40365	1.5708	0	0
20.69	-3.0928	1.33882	-1.46754	0.624533	-0.264125	0.948227	-0.347064	-0.0625493	-0.120394	0.617223	-0.31856	0	0	-0.0953995	0.00135427	-0.057809	0.298294	-0.257336	0	0	-0.345969	-0.0424681	0.140157	0.334372	-0.456022	0.23534	1.71002	1.5708	0	0	0.661399	-0.225818	0.512829	1.40325	1.5708	0	0
20.7	-3.09209	1.33749	-1.46045	0.62266	-0.261653	0.948476	-0.333358	-0.0660208	-0.127537	0.648828	-0.33308	0	0	-0.0984213	0.00109624	-0.0571386	0.300159	-0.256084	0	0	-0.347865	-0.040744	0.132241	0.332476	-0.454658	0.232675	1.71035	1.5708	0	0	0.663316	-0.225796	0.515398	1.40256	1.5708	0	0
20.71	-3.09076	1.33701	-1.45438	0.62101	-0.25933	0.948652	-0.318078	-0.0694733	-0.133773	0.681103	-0.345942	0	0	-0.100231	0.000928352	-0.0559816	0.302018	-0.255097	0	0	-0.349186	-0.039657	0.124671	0.33103	-0.452987	0.230108	1.71044	1.5708	0	0	0.66555	-0.226062	0.517736	1.40184	1.5708	0	0
20.72	-3.08881	1.33761	-1.44934	0.619465	-0.256998	0.948711	-0.30157	-0.073185	-0.140203	0.713562	-0.354074	0	0	-0.101103	0.00112277	-0.0535407	0.303445	-0.254073	0	0	-0.349207	-0.0390254	0.117266	0.329766	-0.451025	0.227971	1.71009	1.5708	0	0	0.667145	-0.226607	0.51944	1.40115	1.5708	0	0
20.73	-3.0862	1.33818	-1.44605	0.618019	-0.254694	0.948742	-0.285218	-0.077233	-0.145817	0.745877	-0.356803	0	0	-0.102676	0.00191859	-0.0489453	0.303894	-0.252757	0	0	-0.34922	-0.0387138	0.110475	0.329359	-0.449189	0.226876	1.70941	1.5708	0	0	0.668087	-0.22708	0.519848	1.40062	1.5708	0	0
20.74	-3.09099	1.33762	-1.43929	0.617274	-0.252839	0.948963	-0.268498	-0.0785752	-0.143332	0.777612	-0.355483	0	0	-0.105391	0.000501499	-0.0477446	0.303572	-0.251636	0	0	-0.351532	-0.0377696	0.107291	0.331547	-0.447456	0.227069	1.70819	1.5708	0	0	0.669874	-0.227704	0.519031	1.40044	1.5708	0	0
20.75	-3.0946	1.33708	-1.43355	0.616637	-0.251087	0.949226	-0.252786	-0.0795085	-0.140976	0.805582	-0.350264	0	0	-0.108406	-0.000572551	-0.0461524	0.302356	-0.250882	0	0	-0.353905	-0.0369464	0.103966	0.334106	-0.44554	0.227568	1.70664	1.5708	0	0	0.671842	-0.228472	0.518203	1.39985	1.5708	0	0
20.76	-3.09914	1.33679	-1.42684	0.616082	-0.249343	0.949528	-0.238055	-0.0796859	-0.1389	0.828724	-0.341314	0	0	-0.111718	-0.00173256	-0.0438189	0.299927	-0.250423	0	0	-0.355797	-0.0359034	0.100603	0.336612	-0.443643	0.228542	1.70484	1.5708	0	0	0.673598	-0.229153	0.517252	1.39882	1.5708	0	0
20.77	-3.10614	1.3362	-1.41818	0.615633	-0.247672	0.949915	-0.22453	-0.0786445	-0.135722	0.846579	-0.329548	0	0	-0.11571	-0.00343365	-0.0414265	0.296525	-0.250401	0	0	-0.357816	-0.0342534	0.098043	0.33929	-0.442248	0.229847	1.70273	1.5708	0	0	0.675495	-0.229478	0.516381	1.3971	1.5708	0	0
20.78	-3.1159	1.33512	-1.40711	0.615306	-0.246099	0.950394	-0.212849	-0.0761469	-0.131389	0.857932	-0.317405	0	0	-0.120227	-0.00596568	-0.0393532	0.292643	-0.250841	0	0	-0.360285	-0.0318698	0.096184	0.342184	-0.440939	0.231062	1.70028	1.5708	0	0	0.677719	-0.229549	0.51584	1.39469	1.5708	0	0
20.79	-3.12815	1.33411	-1.3936	0.615093	-0.244587	0.950917	-0.202705	-0.0722136	-0.126054	0.861805	-0.304298	0	0	-0.124527	-0.00919751	-0.0372292	0.288165	-0.251702	0	0	-0.362505	-0.0286817	0.0947061	0.345112	-0.4396	0.232393	1.6976	1.5708	0	0	0.680083	-0.229312	0.515477	1.3914	1.5708	0	0
20.8	3.14146	1.33336	-1.37857	0.61492	-0.243126	0.951453	-0.193667	-0.0670446	-0.120259	0.859018	-0.292127	0	0	-0.128201	-0.0128518	-0.0348633	0.283833	-0.252503	0	0	-0.364326	-0.0250528	0.0933753	0.347967	-0.43848	0.233636	1.69483	1.5708	0	0	0.682598	-0.228588	0.515267	1.38731	1.5708	0	0
20.81	3.12719	1.33283	-1.36262	0.614843	-0.241732	0.952	-0.185437	-0.0606746	-0.113775	0.850458	-0.279535	0	0	-0.131068	-0.0167398	-0.0329014	0.279986	-0.253195	0	0	-0.365931	-0.0211987	0.0922804	0.350813	-0.437612	0.234887	1.69218	1.5708	0	0	0.685479	-0.2275	0.51522	1.38254	1.5708	0	0
20.82	3.11363	1.33251	-1.34711	0.614858	-0.240375	0.952573	-0.178168	-0.0536669	-0.106678	0.836928	-0.269241	0	0	-0.133464	-0.0207749	-0.031518	0.276887	-0.254003	0	0	-0.367517	-0.0176487	0.09133	0.353153	-0.436678	0.235542	1.68987	1.5708	0	0	0.68876	-0.226116	0.515322	1.37752	1.5708	0	0
20.83	3.09931	1.33262	-1.33094	0.61499	-0.239015	0.953096	-0.171585	-0.04617	-0.0982672	0.819169	-0.259843	0	0	-0.135358	-0.0252073	-0.0304735	0.273646	-0.255111	0	0	-0.36848	-0.0142127	0.0908395	0.35498	-0.435782	0.23574	1.6878	1.5708	0	0	0.692219	-0.224365	0.515578	1.37233	1.5708	0	0
20.84	3.08538	1.33281	-1.3152	0.615197	-0.237712	0.953583	-0.165878	-0.0385458	-0.0894956	0.79822	-0.249869	0	0	-0.137146	-0.0295498	-0.028613	0.270031	-0.256546	0	0	-0.369371	-0.0109694	0.090349	0.357188	-0.434985	0.235949	1.68553	1.5708	0	0	0.695859	-0.222349	0.515707	1.36719	1.5708	0	0
20.85	3.07251	1.33278	-1.3004	0.615472	-0.23647	0.954075	-0.16155	-0.0306726	-0.0810693	0.773998	-0.238118	0	0	-0.138942	-0.0337863	-0.0263591	0.266557	-0.25809	0	0	-0.370534	-0.00784754	0.0895942	0.360115	-0.434462	0.236796	1.68302	1.5708	0	0	0.699566	-0.220506	0.515587	1.36218	1.5708	0	0
20.86	3.06021	1.33312	-1.28613	0.615863	-0.235261	0.954521	-0.158172	-0.0227647	-0.0723411	0.745863	-0.225694	0	0	-0.140018	-0.0379271	-0.0241451	0.263579	-0.25948	0	0	-0.371307	-0.00496987	0.088513	0.363526	-0.433833	0.238288	1.68024	1.5708	0	0	0.703028	-0.21901	0.514933	1.35737	1.5708	0	0
20.87	3.04874	1.33405	-1.27276	0.61635	-0.234118	0.954909	-0.155281	-0.0153587	-0.0630706	0.714693	-0.213467	0	0	-0.140207	-0.0416511	-0.0213004	0.261083	-0.260532	0	0	-0.371493	-0.00247658	0.0873899	0.36721	-0.433388	0.240403	1.67735	1.5708	0	0	0.706226	-0.217575	0.513972	1.35253	1.5708	0	0
20.88	3.03787	1.33544	-1.26012	0.616935	-0.232971	0.955235	-0.153045	-0.00824494	-0.0533271	0.680796	-0.202645	0	0	-0.139764	-0.045175	-0.0184932	0.258997	-0.261287	0	0	-0.370926	-0.000372135	0.0863033	0.370721	-0.432749	0.242741	1.67418	1.5708	0	0	0.709068	-0.216479	0.51313	1.34761	1.5708	0	0
20.89	3.02779	1.33675	-1.24872	0.617558	-0.231878	0.9555	-0.151873	-0.00158652	-0.0427127	0.644741	-0.194451	0	0	-0.139255	-0.0484949	-0.0168133	0.25737	-0.261854	0	0	-0.370274	0.00161697	0.0856433	0.374606	-0.432488	0.245521	1.67084	1.5708	0	0	0.711951	-0.215277	0.512288	1.34215	1.5708	0	0
20.9	3.0205	1.33772	-1.23961	0.618215	-0.230847	0.955774	-0.152307	0.00440143	-0.0324955	0.60696	-0.188536	0	0	-0.138977	-0.0512554	-0.0146411	0.25603	-0.262574	0	0	-0.370093	0.00317073	0.0848686	0.378427	-0.432575	0.24815	1.66761	1.5708	0	0	0.715522	-0.214059	0.512409	1.33612	1.5708	0	0
20.91	3.01548	1.33798	-1.23279	0.618974	-0.229804	0.956076	-0.154669	0.0100177	-0.0226795	0.567813	-0.184811	0	0	-0.139576	-0.053834	-0.0126354	0.254734	-0.263233	0	0	-0.370469	0.00439812	0.0847311	0.381936	-0.433094	0.250422	1.66456	1.5708	0	0	0.719957	-0.212667	0.513852	1.32916	1.5708	0	0
20.92	3.01093	1.33774	-1.22692	0.619909	-0.22873	0.956383	-0.158202	0.0156358	-0.0124705	0.528752	-0.183292	0	0	-0.140644	-0.0566363	-0.011283	0.25369	-0.263574	0	0	-0.371099	0.00551033	0.085554	0.385086	-0.433667	0.252168	1.66166	1.5708	0	0	0.72476	-0.211045	0.51593	1.32164	1.5708	0	0
20.93	3.00728	1.33713	-1.22242	0.621002	-0.227684	0.956655	-0.162459	0.0210631	-0.00179222	0.490704	-0.18341	0	0	-0.141996	-0.0594707	-0.0103198	0.252992	-0.263763	0	0	-0.371976	0.00635545	0.0873336	0.387999	-0.434478	0.253378	1.65894	1.5708	0	0	0.730476	-0.209058	0.519101	1.313	1.5708	0	0
20.94	3.0062	1.33614	-1.221	0.622194	-0.226648	0.956872	-0.167338	0.0256807	0.00768783	0.454489	-0.185282	0	0	-0.143888	-0.0617843	-0.00907644	0.252509	-0.264087	0	0	-0.37317	0.00663299	0.090041	0.390597	-0.435619	0.254108	1.6565	1.5708	0	0	0.736821	-0.20656	0.523156	1.30338	1.5708	0	0
20.95	3.00775	1.33471	-1.22283	0.623509	-0.225627	0.957086	-0.172593	0.0294279	0.0149624	0.421361	-0.189133	0	0	-0.146603	-0.0635051	-0.00723635	0.251794	-0.264313	0	0	-0.37473	0.00635879	0.093562	0.393014	-0.436618	0.254174	1.65399	1.5708	0	0	0.743629	-0.203557	0.527582	1.29276	1.5708	0	0
20.96	3.01214	1.33283	-1.22818	0.624946	-0.22459	0.957316	-0.178139	0.0322183	0.0200091	0.391459	-0.194505	0	0	-0.15016	-0.0646817	-0.0057189	0.25117	-0.264109	0	0	-0.376612	0.00550084	0.0977353	0.395286	-0.437273	0.253825	1.65139	1.5708	0	0	0.7506	-0.200315	0.532123	1.28157	1.5708	0	0
20.97	3.01908	1.33044	-1.23671	0.626471	-0.223528	0.957543	-0.184094	0.034053	0.0231005	0.364347	-0.202391	0	0	-0.154595	-0.0653073	-0.00462326	0.250642	-0.26367	0	0	-0.378776	0.00411948	0.102398	0.397597	-0.437543	0.253433	1.64846	1.5708	0	0	0.757345	-0.196969	0.536373	1.27018	1.5708	0	0
20.98	3.0275	1.32762	-1.24744	0.628103	-0.22245	0.95775	-0.190207	0.0352078	0.0252014	0.340825	-0.214764	0	0	-0.159666	-0.0656257	-0.00458543	0.250192	-0.263168	0	0	-0.381061	0.00230075	0.107537	0.400302	-0.437697	0.253554	1.64497	1.5708	0	0	0.763663	-0.193591	0.540041	1.25868	1.5708	0	0
